<?xml version="1.0" encoding="utf-8"?>
<!-- Generator: Adobe Illustrator 16.0.0, SVG Export Plug-In . SVG Version: 6.00 Build 0)  -->
<!DOCTYPE svg PUBLIC "-//W3C//DTD SVG 1.1//EN" "http://www.w3.org/Graphics/SVG/1.1/DTD/svg11.dtd">
<svg version="1.1" id="Layer_1" xmlns="http://www.w3.org/2000/svg" xmlns:xlink="http://www.w3.org/1999/xlink" x="0px" y="0px"
	 width="512px" height="512px" viewBox="0 0 512 512" enable-background="new 0 0 512 512" xml:space="preserve">
<path d="M468.375,10.326H319.488c-5.686,0-10.819,3.421-12.98,8.671c-2.188,5.259-0.981,11.298,3.044,15.32l33.833,33.833
	L65.807,345.698l-33.752-33.771c-4.021-4.026-10.092-5.232-15.36-3.049C11.443,311.058,8,316.188,8,321.891v148.792
	c0,9.106,3.605,17.836,10.048,24.27C24.486,501.386,33.216,505,42.313,505h148.806c5.699,0,10.819-3.43,13.011-8.693
	c2.188-5.26,0.964-11.321-3.063-15.348l-33.766-33.775l277.561-277.561l33.815,33.824c4.026,4.022,10.065,5.224,15.329,3.049
	c5.25-2.174,8.667-7.304,8.667-12.984V44.635C502.674,25.687,487.309,10.326,468.375,10.326z"/>
</svg>
