<?xml version="1.0" encoding="iso-8859-1"?>
<!-- Generator: Adobe Illustrator 19.0.0, SVG Export Plug-In . SVG Version: 6.00 Build 0)  -->
<svg version="1.1" id="Capa_1" xmlns="http://www.w3.org/2000/svg" xmlns:xlink="http://www.w3.org/1999/xlink" x="0px" y="0px"
	 viewBox="0 0 512 512" style="enable-background:new 0 0 512 512;" xml:space="preserve">
<g>
	<g>
		<path d="M268.708,256l136.083-128.531c14.104-14.104,21.875-32.854,21.875-52.802C426.667,33.5,393.167,0,352,0
			c-19.875,0-38.583,7.719-52.667,21.75L107.208,203.198c-10.396,10.385-17.438,23.448-20.375,37.813c-1,4.979-1.5,10.021-1.5,14.99
			s0.5,10.01,1.5,15.042c2.938,14.323,9.979,27.375,20.583,37.958l191.792,181.125C313.313,504.229,332.063,512,352,512
			c41.167,0,74.667-33.5,74.667-74.667c0-19.958-7.771-38.708-22.083-53.01L268.708,256z"/>
	</g>
</g>
<g>
</g>
<g>
</g>
<g>
</g>
<g>
</g>
<g>
</g>
<g>
</g>
<g>
</g>
<g>
</g>
<g>
</g>
<g>
</g>
<g>
</g>
<g>
</g>
<g>
</g>
<g>
</g>
<g>
</g>
</svg>
