<?xml version="1.0" encoding="iso-8859-1"?>
<!-- Generator: Adobe Illustrator 19.0.0, SVG Export Plug-In . SVG Version: 6.00 Build 0)  -->
<svg version="1.1" id="Capa_1" xmlns="http://www.w3.org/2000/svg" xmlns:xlink="http://www.w3.org/1999/xlink" x="0px" y="0px"
	 viewBox="0 0 497.88 497.88" style="enable-background:new 0 0 497.88 497.88;" xml:space="preserve">
<g>
	<g>
		<path d="M497.734,247.628c-0.544-4.224-2.784-8.032-6.144-10.592c-70.08-53.44-153.984-81.696-242.656-81.696
			S76.358,183.596,6.278,237.036c-3.36,2.56-5.6,6.368-6.144,10.592s0.576,8.48,3.136,11.84l58.56,76.768
			c2.592,3.392,6.368,5.6,10.592,6.144c4.224,0.608,8.48-0.576,11.84-3.136c24.704-18.912,52.288-33.344,81.92-42.912
			c8.384-2.72,12.992-11.712,10.304-20.128l-19.648-61.088c59.552-15.168,124.608-15.2,184.192,0l-19.648,61.088
			c-2.72,8.416,1.92,17.408,10.304,20.128c29.6,9.568,57.152,24,81.92,42.912c2.816,2.112,6.208,3.296,9.728,3.296
			c0.704,0,1.408-0.064,2.112-0.16c4.224-0.576,8.032-2.752,10.592-6.112l58.56-76.8C497.158,256.108,498.31,251.82,497.734,247.628
			z"/>
	</g>
</g>
<g>
</g>
<g>
</g>
<g>
</g>
<g>
</g>
<g>
</g>
<g>
</g>
<g>
</g>
<g>
</g>
<g>
</g>
<g>
</g>
<g>
</g>
<g>
</g>
<g>
</g>
<g>
</g>
<g>
</g>
</svg>
