<svg height="512" viewBox="0 0 512 512" width="512" xmlns="http://www.w3.org/2000/svg"><g id="Solid"><path d="m429.581 307.019a24.436 24.436 0 0 0 -32.3 12.284 154.821 154.821 0 0 1 -279.667 6.033l13.84 6.162a24.437 24.437 0 1 0 19.879-44.649l-64.315-28.634a24.437 24.437 0 0 0 -32.264 12.385l-28.635 64.313a24.437 24.437 0 1 0 44.649 19.879l3.266-7.335a203.681 203.681 0 0 0 181.966 112.188c1.181 0 2.368-.011 3.551-.031a203.669 203.669 0 0 0 182.315-120.292 24.438 24.438 0 0 0 -12.285-32.303z"/><path d="m473.5 144.823a24.438 24.438 0 0 0 -32.264 12.385l-3.266 7.335a203.685 203.685 0 0 0 -367.085 6.494 24.437 24.437 0 1 0 44.406 20.415 154.82 154.82 0 0 1 279.1-4.788l-13.84-6.162a24.438 24.438 0 0 0 -19.879 44.65l64.128 28.548.117.052a24.435 24.435 0 0 0 32.329-12.352l28.635-64.313a24.437 24.437 0 0 0 -12.381-32.264z"/></g></svg>